<svg xmlns="http://www.w3.org/2000/svg" xmlns:xlink="http://www.w3.org/1999/xlink" xml:space="preserve" version="1.1" style="shape-rendering:geometricPrecision;text-rendering:geometricPrecision;image-rendering:optimizeQuality;" viewBox="0 0 60000 60000" x="0px" y="0px" fill-rule="evenodd" clip-rule="evenodd"><defs><style type="text/css">
   
    .fil0 {fill:white;fill-rule:nonzero}
   
  </style></defs><g><path class="fil0" d="M41971 36920l10823 5801 0 -24766 -10759 18856 0 0 -64 109zm282 -14825l236 441 -837 449c131,223 258,446 386,670l-434 248 -131 -229 -183 -280 -366 -607 447 -220 881 -472zm-12423 20833l568 9 -113 1305 -500 -6 45 -1308zm-62 2808l500 6 -11 1000 -500 -6 11 -1000zm-28 2500l500 6 -11 1000 -500 -6 11 -1000zm-28 2500l500 6 -11 1000 -500 -6 11 -1000zm-28 2500l500 6 -11 1000 -500 -6 11 -1000zm211 -10975l-436 244 -488 -873 436 -244 488 873zm-1220 -2182l-436 244 -488 -873 436 -244 488 873zm-1220 -2182l-436 244 -347 -622 -7456 0 10826 18152 10655 -18152 -13453 0 211 378zm-1220 -2182l-436 244 -488 -873 436 -244 488 873zm-1220 -2182l-436 244 -394 -705 -94 -163 433 -250c168,290 329,583 492,875zm-1243 -2173l-433 250 -475 -821 -3314 5931 21223 0 -5314 -9509 -5297 -9480 -7248 12970 358 -207 501 866zm-1252 -2164l-433 250 -501 -866 433 -250 501 866zm-1252 -2164l-433 250 -501 -866 433 -250 501 866zm-1252 -2164l-433 250 -501 -866 433 -250 501 866zm-1415 -1874l795 7 4 -500 -836 -7 -866 -453 -232 443 652 341c-145,243 -286,485 -428,729l432 252 265 -456 212 -356zm2295 20l4 -500 1000 9 -4 500 -1000 -9zm2500 22l4 -500 1000 9 -4 500 -1000 -9zm2500 22l4 -500 646 6 3010 -5386 -7501 24 -97 162 -270 -161 -14290 45 6982 11993 40 -69 432 252 -183 314 3962 6805 5 9 48 81 7584 -13571 -373 -3zm2500 22l4 -500 1000 9 -4 500 -1000 -9zm2501 18l2 -500 1000 4 -2 500 -1000 -4zm2904 -489l598 2 -2 500 -316 -1 3410 6102 141 -252 437 244 -291 521 3653 6538 3613 -6332 -218 -382 434 -248 72 125 7108 -12456 -14241 131 47 81 -431 253 -193 -329 -6860 63 3040 5440zm2096 508l2 -500 1000 4 -2 500 -1000 -4zm2500 10l2 -500 1000 4 -2 500 -1000 -4zm1670 1467l437 244 -487 873 -437 -244 487 -873zm-1218 2183l437 244 -487 873 -437 -244 487 -873zm-2436 4367l437 244 -487 873 -437 -244 487 -873zm-1218 2183l436 244 -488 873 -436 -244 488 -873zm-1220 2182l436 244 -488 873 -436 -244 488 -873zm-1220 2182l436 244 -488 873 -436 -244 488 -873zm-1220 2182l436 244 -488 873 -436 -244 488 -873zm-1220 2182l436 244 -356 638 -568 -9 488 -873zm-1873 -36544l429 256 -512 859 -429 -256 512 -859zm-1281 2147l429 256 -512 859 -429 -256 512 -859zm-1281 2147l429 256 -512 859 -429 -256 512 -859zm-1281 2147l429 256 -512 859 -429 -256 512 -859zm-1281 2147l429 256 -512 859 -429 -256 512 -859zm-1281 2147l260 155 7455 -23 -141 -12468 -11004 6353 0 -1 -1 1 -10711 6184 14049 -44 93 -156zm-1281 2147l429 256 -512 859 -429 -256 512 -859zm-1281 2147l429 256 -512 859 -429 -256 512 -859zm-2544 4307l432 252 -503 864 -432 -252 503 -864zm-1258 2161l432 252 -503 864 -432 -252 503 -864zm-1757 3027l-3 -2 1 -2 -6701 -11511 0 24208 10807 -5649 -72 -122c-4,-6 -7,-12 -11,-18l-4020 -6905zm-758 1294l432 252 -503 864 -432 -252 503 -864zm-1258 2161l432 252 -503 864 -432 -252 503 -864zm-1258 2161l432 252 -503 864 -432 -252 503 -864zm-1258 2161l432 252 -503 864 -432 -252 503 -864zm-1258 2161l432 252 -503 864 -432 -252 503 -864zm603 3395l2 -500 370 3 -2 500 -370 -3zm1870 8l2 -500 1000 3 -2 500 -1000 -3zm2500 8l2 -500 1000 3 -2 500 -1000 -3zm2500 8l2 -500 1000 3 -2 500 -1000 -3zm2500 8l2 -500 1000 3 -2 500 -1000 -3zm2500 8l2 -500 895 3 -3068 -5144 -10789 5640 10945 6319c7,4 15,8 22,12l10617 6130 -7624 -12782 -1 325 -1000 -3zm2500 8l2 -500 1000 3 -2 500 -1000 -3zm2500 8l2 -500 1000 3 -2 500 -1000 -3zm2500 8l2 -500 1000 3 -2 500 -1000 -3zm2498 12l5 -500 1000 9 -5 500 -1000 -9zm2500 23l5 -500 1000 9 -5 500 -1000 -9zm2500 23l5 -500 1000 9 -5 500 -1000 -9zm2500 23l0 0 -7219 12298 10517 -6072 0 1 10975 -6336 -10808 -5793 -3173 5406 713 7 -5 500 -1000 -9zm2500 23l5 -500 1000 9 -5 500 -1000 -9zm2500 23l5 -500 1000 9 -5 500 -1000 -9zm2500 23l5 -500 1000 9 -5 500 -1000 -9zm2500 23l5 -500 1000 9 -5 500 -1000 -9zm2500 23l5 -500 1000 9 -5 500 -1000 -9zm1348 -2600l-434 248 -496 -869 434 -248 496 869zm-1239 -2171l-434 248 -496 -869 434 -248 496 869zm-1239 -2171l-434 248 -496 -869 434 -248 496 869zm-1239 -2171l-434 248 -496 -869 434 -248 496 869zm-1239 -2171l-434 248 -496 -869 434 -248 496 869zm-2478 -4343l-434 248 -496 -869 434 -248 496 869zm-1239 -2171l-434 248 -496 -869 434 -248 496 869zm-2501 -4333l-431 253 -506 -862 431 -253 506 862zm-1266 -2156l-431 253 -506 -862 431 -253 506 862zm-2531 -4312l-431 253 -506 -862 431 -253 506 862zm-1266 -2156l-431 253 -506 -862 431 -253 506 862zm-1266 -2156l-431 253 -506 -862 431 -253 506 862zm-1266 -2156l-431 253 -506 -862 431 -253 506 862zm-1266 -2156l-431 253 -506 -862 431 -253 506 862zm-23312 11449l232 -443 886 463 -232 443 -886 -463zm2216 1158l232 -443 886 463 -232 443 -886 -463zm2216 1158l232 -443 886 463 -232 443 -886 -463zm2216 1158l232 -443 886 463 -232 443 -886 -463zm35815 -3954l236 441 -881 472 -236 -441 881 -472zm-2203 1181l236 441 -881 472 -236 -441 881 -472zm-2203 1181l236 441 -881 472 -236 -441 881 -472zm-2203 1181l236 441 -881 472 -236 -441 881 -472zm-14246 -18032l11590 6691c7,4 14,8 21,13l11430 6599c26,8 51,19 75,33 26,15 50,32 71,52 125,74 195,207 196,343l2 0 0 26776c0,162 -96,301 -234,364l-11561 6675 0 1 -11594 6694c-130,75 -284,69 -404,-3l-11590 -6691c-7,-4 -14,-8 -21,-13l-11572 -6681c-128,-74 -200,-208 -200,-345l-2 0 0 -26035c0,-772 -127,-859 464,-1237l11330 -6542 0 -1 11594 -6694c130,-75 284,-69 404,3zm11190 7382l-10988 -6344 141 12454 21096 -193 -10227 -5904c-7,-4 -15,-8 -22,-12z"/></g></svg>